# Blender v2.93.5 OBJ File: 'jeff.blend'
# www.blender.org
mtllib jeff.mtl
o Sphere_Sphere.001
v 0.179576 2.047647 -0.180479
v 0.253959 1.792410 -0.255236
v 0.179576 1.537174 -0.180479
v 0.253958 2.047647 0.000000
v 0.359152 1.792410 0.000000
v 0.253958 1.537174 0.000000
v 0.179576 2.047647 0.180479
v 0.253958 1.792410 0.255236
v 0.179576 1.537174 0.180479
v -0.000000 2.047647 0.255236
v -0.000000 1.792410 0.360959
v -0.000000 1.537174 0.255236
v 0.000000 1.431452 0.000000
v -0.000000 2.153369 0.000000
v -0.179576 2.047647 0.180479
v -0.253959 1.792410 0.255236
v -0.179576 1.537174 0.180479
v -0.253958 2.047647 0.000000
v -0.359152 1.792410 0.000000
v -0.253958 1.537174 0.000000
v -0.179576 2.047647 -0.180479
v -0.253958 1.792410 -0.255236
v -0.179576 1.537174 -0.180479
v -0.000000 2.047647 -0.255236
v 0.000000 1.792410 -0.360959
v -0.000000 1.537174 -0.255236
vt 0.687500 0.000000
vt 0.750000 0.250000
vt 0.625000 0.250000
vt 0.750000 0.500000
vt 0.750000 0.750000
vt 0.625000 0.750000
vt 0.625000 0.500000
vt 0.687500 1.000000
vt 0.562500 0.000000
vt 0.500000 0.250000
vt 0.500000 0.750000
vt 0.500000 0.500000
vt 0.562500 1.000000
vt 0.437500 0.000000
vt 0.375000 0.250000
vt 0.375000 0.750000
vt 0.375000 0.500000
vt 0.437500 1.000000
vt 0.312500 0.000000
vt 0.250000 0.250000
vt 0.250000 0.750000
vt 0.250000 0.500000
vt 0.312500 1.000000
vt 0.187500 1.000000
vt 0.125000 0.750000
vt 0.187500 0.000000
vt 0.125000 0.250000
vt 0.125000 0.500000
vt 0.000000 0.500000
vt 0.000000 0.250000
vt 0.062500 1.000000
vt 0.000000 0.750000
vt 0.062500 0.000000
vt 1.000000 0.250000
vt 1.000000 0.500000
vt 0.875000 0.500000
vt 0.875000 0.250000
vt 1.000000 0.750000
vt 0.937500 1.000000
vt 0.875000 0.750000
vt 0.937500 0.000000
vt 0.812500 1.000000
vt 0.812500 0.000000
vn 0.1573 -0.9124 -0.3779
vn 0.3590 0.3572 -0.8623
vn 0.3590 -0.3572 -0.8623
vn 0.1573 0.9124 -0.3779
vn 0.3796 -0.9118 -0.1564
vn 0.8640 0.3561 -0.3561
vn 0.8640 -0.3561 -0.3561
vn 0.3796 0.9118 -0.1564
vn 0.3796 -0.9118 0.1564
vn 0.8640 0.3561 0.3561
vn 0.8640 -0.3561 0.3561
vn 0.3796 0.9118 0.1564
vn 0.1573 -0.9124 0.3779
vn 0.3590 0.3572 0.8623
vn 0.3590 -0.3572 0.8623
vn 0.1573 0.9124 0.3779
vn -0.1573 0.9124 0.3779
vn -0.1573 -0.9124 0.3779
vn -0.3590 0.3572 0.8623
vn -0.3590 -0.3572 0.8623
vn -0.8640 -0.3561 0.3561
vn -0.3796 0.9118 0.1564
vn -0.3796 -0.9118 0.1564
vn -0.8640 0.3561 0.3561
vn -0.8640 -0.3561 -0.3561
vn -0.3796 0.9118 -0.1564
vn -0.3796 -0.9118 -0.1564
vn -0.8640 0.3561 -0.3561
vn -0.3590 -0.3572 -0.8623
vn -0.1573 0.9124 -0.3779
vn -0.1573 -0.9124 -0.3779
vn -0.3590 0.3572 -0.8623
usemtl None
s off
f 13/1/1 26/2/1 3/3/1
f 25/4/2 24/5/2 1/6/2 2/7/2
f 26/2/3 25/4/3 2/7/3 3/3/3
f 24/5/4 14/8/4 1/6/4
f 13/9/5 3/3/5 6/10/5
f 2/7/6 1/6/6 4/11/6 5/12/6
f 3/3/7 2/7/7 5/12/7 6/10/7
f 1/6/8 14/13/8 4/11/8
f 13/14/9 6/10/9 9/15/9
f 5/12/10 4/11/10 7/16/10 8/17/10
f 6/10/11 5/12/11 8/17/11 9/15/11
f 4/11/12 14/18/12 7/16/12
f 13/19/13 9/15/13 12/20/13
f 8/17/14 7/16/14 10/21/14 11/22/14
f 9/15/15 8/17/15 11/22/15 12/20/15
f 7/16/16 14/23/16 10/21/16
f 10/21/17 14/24/17 15/25/17
f 13/26/18 12/20/18 17/27/18
f 11/22/19 10/21/19 15/25/19 16/28/19
f 12/20/20 11/22/20 16/28/20 17/27/20
f 17/27/21 16/28/21 19/29/21 20/30/21
f 15/25/22 14/31/22 18/32/22
f 13/33/23 17/27/23 20/30/23
f 16/28/24 15/25/24 18/32/24 19/29/24
f 20/34/25 19/35/25 22/36/25 23/37/25
f 18/38/26 14/39/26 21/40/26
f 13/41/27 20/34/27 23/37/27
f 19/35/28 18/38/28 21/40/28 22/36/28
f 23/37/29 22/36/29 25/4/29 26/2/29
f 21/40/30 14/42/30 24/5/30
f 13/43/31 23/37/31 26/2/31
f 22/36/32 21/40/32 24/5/32 25/4/32
o Sphere.001_Sphere.002
v -0.212635 0.604342 0.163152
v -0.300711 1.116881 0.230732
v -0.212635 1.395673 0.163152
v -0.300711 0.604342 -0.000000
v -0.425270 1.116881 -0.000000
v -0.300711 1.395673 -0.000000
v -0.212635 0.604342 -0.163152
v -0.300711 1.116881 -0.230732
v -0.212635 1.395673 -0.163152
v 0.000000 0.604342 -0.186660
v 0.000000 1.116881 -0.295585
v 0.000000 1.395673 -0.230732
v 0.000000 1.511152 -0.000000
v 0.000000 0.493257 -0.000000
v 0.212635 0.604342 -0.163152
v 0.300711 1.116881 -0.230732
v 0.212635 1.395673 -0.163152
v 0.300711 0.604342 -0.000000
v 0.425270 1.116881 -0.000000
v 0.300711 1.395673 -0.000000
v 0.212635 0.604342 0.163152
v 0.300711 1.116881 0.230732
v 0.212635 1.395673 0.163152
v 0.000000 0.604342 0.201365
v -0.000000 1.116881 0.270015
v 0.000000 1.395673 0.230732
vt 0.687500 0.000000
vt 0.625000 0.250000
vt 0.750000 0.250000
vt 0.750000 0.500000
vt 0.625000 0.500000
vt 0.625000 0.750000
vt 0.750000 0.750000
vt 0.687500 1.000000
vt 0.500000 0.500000
vt 0.500000 0.750000
vt 0.500000 0.250000
vt 0.562500 1.000000
vt 0.562500 0.000000
vt 0.437500 0.000000
vt 0.375000 0.250000
vt 0.375000 0.500000
vt 0.375000 0.750000
vt 0.437500 1.000000
vt 0.312500 0.000000
vt 0.250000 0.250000
vt 0.250000 0.500000
vt 0.250000 0.750000
vt 0.312500 1.000000
vt 0.187500 0.000000
vt 0.125000 0.250000
vt 0.125000 0.500000
vt 0.125000 0.750000
vt 0.187500 1.000000
vt 0.062500 0.000000
vt 0.000000 0.250000
vt 0.000000 0.500000
vt 0.000000 0.750000
vt 0.062500 1.000000
vt 1.000000 0.750000
vt 0.875000 0.750000
vt 0.937500 1.000000
vt 0.937500 0.000000
vt 0.875000 0.250000
vt 1.000000 0.250000
vt 1.000000 0.500000
vt 0.875000 0.500000
vt 0.812500 1.000000
vt 0.812500 0.000000
vn -0.1408 0.8853 0.4431
vn -0.1477 -0.1428 0.9787
vn -0.1990 0.2147 0.9562
vn -0.0865 -0.8723 0.4812
vn -0.8605 -0.2091 0.4645
vn -0.8189 0.3659 0.4421
vn -0.3406 -0.9220 0.1839
vn -0.3520 0.9165 0.1900
vn -0.3520 0.9165 -0.1900
vn -0.8605 -0.2091 -0.4645
vn -0.8189 0.3659 -0.4421
vn -0.3406 -0.9220 -0.1839
vn -0.1408 0.8853 -0.4431
vn -0.1668 -0.1812 -0.9692
vn -0.2412 0.2602 -0.9350
vn -0.0564 -0.8580 -0.5106
vn 0.1408 0.8853 -0.4431
vn 0.1668 -0.1812 -0.9692
vn 0.2412 0.2602 -0.9350
vn 0.0564 -0.8580 -0.5106
vn 0.3520 0.9165 -0.1900
vn 0.8605 -0.2091 -0.4645
vn 0.8189 0.3659 -0.4421
vn 0.3406 -0.9220 -0.1839
vn 0.3406 -0.9220 0.1839
vn 0.3520 0.9165 0.1900
vn 0.8605 -0.2091 0.4645
vn 0.8189 0.3659 0.4421
vn 0.1990 0.2147 0.9562
vn 0.0865 -0.8723 0.4812
vn 0.1408 0.8853 0.4431
vn 0.1477 -0.1428 0.9787
usemtl None
s off
f 39/44/33 29/45/33 52/46/33
f 51/47/34 28/48/34 27/49/34 50/50/34
f 52/46/35 29/45/35 28/48/35 51/47/35
f 50/50/36 27/49/36 40/51/36
f 28/48/37 31/52/37 30/53/37 27/49/37
f 29/45/38 32/54/38 31/52/38 28/48/38
f 27/49/39 30/53/39 40/55/39
f 39/56/40 32/54/40 29/45/40
f 39/57/41 35/58/41 32/54/41
f 31/52/42 34/59/42 33/60/42 30/53/42
f 32/54/43 35/58/43 34/59/43 31/52/43
f 30/53/44 33/60/44 40/61/44
f 39/62/45 38/63/45 35/58/45
f 34/59/46 37/64/46 36/65/46 33/60/46
f 35/58/47 38/63/47 37/64/47 34/59/47
f 33/60/48 36/65/48 40/66/48
f 39/67/49 43/68/49 38/63/49
f 37/64/50 42/69/50 41/70/50 36/65/50
f 38/63/51 43/68/51 42/69/51 37/64/51
f 36/65/52 41/70/52 40/71/52
f 39/72/53 46/73/53 43/68/53
f 42/69/54 45/74/54 44/75/54 41/70/54
f 43/68/55 46/73/55 45/74/55 42/69/55
f 41/70/56 44/75/56 40/76/56
f 44/77/57 47/78/57 40/79/57
f 39/80/58 49/81/58 46/82/58
f 45/83/59 48/84/59 47/78/59 44/77/59
f 46/82/60 49/81/60 48/84/60 45/83/60
f 49/81/61 52/46/61 51/47/61 48/84/61
f 47/78/62 50/50/62 40/85/62
f 39/86/63 52/46/63 49/81/63
f 48/84/64 51/47/64 50/50/64 47/78/64
o Cone
v 0.090496 0.816096 -0.175969
v -0.076286 0.794632 -0.053795
v -0.012581 0.802831 0.143887
v 0.193574 0.829361 0.143887
v 0.257279 0.837559 -0.053795
v 0.254008 -0.016464 0.000843
vt 0.250000 0.490000
vt 0.250000 0.250000
vt 0.478254 0.324164
vt 0.391068 0.055836
vt 0.108932 0.055836
vt 0.750000 0.490000
vt 0.978254 0.324164
vt 0.891068 0.055836
vt 0.608932 0.055836
vt 0.521746 0.324164
vt 0.021746 0.324164
vn -0.5448 -0.2752 -0.7921
vn -0.8901 -0.3422 0.3010
vn 0.0213 -0.1652 0.9860
vn -0.1276 0.9918 -0.0000
vn 0.9515 0.0160 0.3073
vn 0.5946 -0.0536 -0.8023
usemtl None
s off
f 53/87/65 58/88/65 54/89/65
f 54/89/66 58/88/66 55/90/66
f 55/90/67 58/88/67 56/91/67
f 53/92/68 54/93/68 55/94/68 56/95/68 57/96/68
f 56/91/69 58/88/69 57/97/69
f 57/97/70 58/88/70 53/87/70
o Cone.001
v -0.125381 0.842760 0.148944
v 0.062126 0.821297 0.061859
v 0.038435 0.829495 -0.144478
v -0.163715 0.856025 -0.184917
v -0.264958 0.864223 -0.003572
v -0.251033 0.010200 -0.056506
vt 0.250000 0.490000
vt 0.250000 0.250000
vt 0.478254 0.324164
vt 0.391068 0.055836
vt 0.108932 0.055836
vt 0.750000 0.490000
vt 0.978254 0.324164
vt 0.891068 0.055836
vt 0.608932 0.055836
vt 0.521746 0.324164
vt 0.021746 0.324164
vn 0.3789 -0.2752 0.8836
vn 0.9319 -0.3422 -0.1206
vn 0.1726 -0.1652 -0.9710
vn 0.1252 0.9918 0.0250
vn -0.8727 0.0160 -0.4880
vn -0.7404 -0.0536 0.6700
usemtl None
s off
f 59/98/71 64/99/71 60/100/71
f 60/100/72 64/99/72 61/101/72
f 61/101/73 64/99/73 62/102/73
f 59/103/74 60/104/74 61/105/74 62/106/74 63/107/74
f 62/102/75 64/99/75 63/108/75
f 63/108/76 64/99/76 59/98/76
o Cone.002_Cone.004
v -0.250145 1.247539 0.125536
v -0.169693 1.154732 0.040906
v -0.198087 1.186406 -0.102057
v -0.296088 1.298789 -0.105783
v -0.328261 1.336571 0.034878
v -0.726635 0.827907 0.001304
vt 0.250000 0.490000
vt 0.250000 0.250000
vt 0.478254 0.324164
vt 0.391068 0.055836
vt 0.108932 0.055836
vt 0.750000 0.490000
vt 0.978254 0.324164
vt 0.891068 0.055836
vt 0.608932 0.055836
vt 0.521746 0.324164
vt 0.021746 0.324164
vn 0.2502 -0.5250 0.8135
vn 0.5005 -0.8189 -0.2808
vn -0.1072 -0.1262 -0.9862
vn 0.7537 0.6572 -0.0041
vn -0.7332 0.5958 -0.3277
vn -0.5123 0.3494 0.7845
usemtl None
s off
f 65/109/77 70/110/77 66/111/77
f 66/111/78 70/110/78 67/112/78
f 67/112/79 70/110/79 68/113/79
f 65/114/80 66/115/80 67/116/80 68/117/80 69/118/80
f 68/113/81 70/110/81 69/119/81
f 69/119/82 70/110/82 65/109/82
o Cone.003_Cone.005
v 0.139381 1.286813 -0.079946
v 0.236532 1.147430 -0.060370
v 0.397284 1.198580 -0.032234
v 0.399483 1.369577 -0.034421
v 0.240090 1.424107 -0.063909
v 0.411288 1.274489 -0.770022
vt 0.250000 0.490000
vt 0.250000 0.250000
vt 0.478254 0.324164
vt 0.391068 0.055836
vt 0.108932 0.055836
vt 0.750000 0.490000
vt 0.978254 0.324164
vt 0.891068 0.055836
vt 0.608932 0.055836
vt 0.521746 0.324164
vt 0.021746 0.324164
vn -0.7652 -0.5742 -0.2912
vn 0.3164 -0.9442 -0.0911
vn 0.9998 -0.0126 0.0177
vn -0.1770 0.0149 0.9841
vn 0.3405 0.9331 -0.1152
vn -0.7502 0.5861 -0.3061
usemtl None
s off
f 71/120/83 76/121/83 72/122/83
f 72/122/84 76/121/84 73/123/84
f 73/123/85 76/121/85 74/124/85
f 71/125/86 72/126/86 73/127/86 74/128/86 75/129/86
f 74/124/87 76/121/87 75/130/87
f 75/130/88 76/121/88 71/120/88
